<svg enable-background="new 0 0 512 109" viewBox="0 0 512 109" xmlns="http://www.w3.org/2000/svg"><g fill="#fff"><path d="m111 77.9c-6.8 0-12.3-2.3-16.7-6.8s-6.6-10-6.6-16.6 2.2-12.2 6.6-16.6 10-6.7 16.7-6.7c4 0 7.8 1 11.3 2.9s6.1 4.5 8 7.7l-7.6 4.4c-1.1-2-2.7-3.6-4.8-4.7-2-1.1-4.4-1.7-6.9-1.7-4.4 0-7.9 1.3-10.5 4.1-2.7 2.8-4 6.3-4 10.6s1.3 7.8 4 10.6 6.2 4.1 10.5 4.1c2.6 0 4.9-.6 7-1.7 2-1.1 3.6-2.7 4.7-4.6l7.6 4.4c-1.9 3.2-4.6 5.8-8 7.7-3.4 2-7.2 2.9-11.3 2.9z"/><path d="m168.3 32.1h8.8v44.9h-8.8v-18.6h-16.7v18.6h-8.9v-44.9h8.9v17.8h16.7z"/><path d="m221.4 77-2.7-8.1h-17.9l-2.7 8.1h-9.6l15.7-44.9h11l15.8 44.9zm-17.8-16.4h12.4l-6.1-18.3z"/><path d="m267.1 77-9.1-15.6h-6.8v15.6h-8.9v-44.9h18c4.1 0 7.7 1.5 10.6 4.4s4.4 6.4 4.4 10.5c0 2.8-.8 5.3-2.4 7.7s-3.7 4.1-6.3 5.3l9.9 16.9zm-15.8-36.6v13.3h9.1c1.7 0 3.1-.7 4.3-1.9 1.2-1.3 1.8-2.9 1.8-4.7s-.6-3.4-1.8-4.7-2.7-1.9-4.3-1.9z"/><path d="m332.5 52.9v3.5c0 6.4-2 11.6-6.1 15.6s-9.4 5.9-15.9 5.9c-6.9 0-12.7-2.3-17.2-6.8-4.6-4.5-6.9-10-6.9-16.5 0-6.6 2.3-12.1 6.8-16.6s10.1-6.8 16.8-6.8c4.2 0 8 1 11.5 2.9s6.1 4.5 8.1 7.6l-7.6 4.4c-1.1-1.8-2.7-3.3-4.9-4.5-2.2-1.1-4.6-1.7-7.2-1.7-4.3 0-7.8 1.4-10.5 4.2-2.8 2.8-4.1 6.3-4.1 10.6s1.4 7.7 4.2 10.5 6.5 4.1 11.1 4.1c3.4 0 6.2-.8 8.5-2.3s3.8-3.6 4.6-6.2h-13.6v-7.8z"/><path d="m354.6 68.5h18.9v8.5h-27.7v-44.9h27.4v8.5h-18.6v9.5h17v8.3h-17z"/><path d="m397.6 71.3h19.4v5.7h-25.3v-44.9h5.9z"/><path d="m460.9 77-3.7-10.1h-20.2l-3.7 10.1h-6.3l16.7-44.9h6.8l16.7 44.9zm-21.9-15.6h16.1l-8.1-22.1z"/><path d="m505.2 53.7c2 1 3.7 2.4 4.9 4.2s1.8 3.9 1.8 6.3c0 3.6-1.2 6.6-3.8 9.1-2.5 2.4-5.6 3.7-9.2 3.7h-19.4v-45h18c3.5 0 6.5 1.2 8.9 3.5 2.4 2.4 3.7 5.3 3.7 8.8.1 4.1-1.6 7.1-4.9 9.4zm-7.6-16h-12v13.7h12c1.9 0 3.5-.7 4.8-2s1.9-3 1.9-4.9-.7-3.5-1.9-4.9c-1.5-1.2-3-1.9-4.8-1.9zm1.3 33.7c2 0 3.7-.7 5.1-2.1 1.3-1.4 2-3.1 2-5.2 0-2-.7-3.7-2-5.1-1.4-1.4-3.1-2.1-5-2.1h-13.4v14.6z"/><path d="m63.3 43.4c-7.6 0-15.2 0-22.8 0 1.1-6 2.2-12 3.3-18 1.3-7.3 2.7-14.6 4-21.9 0 0 0 0 0-.1.5-2.8-2.8-4.1-4.5-1.9-3 4.1-5.9 8.2-8.9 12.4-6 8.4-12 16.8-18 25.2-3.6 5.1-7.2 10.1-10.9 15.3-1.1 1.6-2.3 3.2-3.5 4.9-.4.9-1 1.7-1.6 2.6-1.1 1.5.4 3.7 2.1 3.7h22.8c-1.1 6-2.2 12-3.3 18-1.3 7.3-2.7 14.6-4 21.9v.1c-.5 2.8 2.8 4.1 4.5 1.9 3-4.1 5.9-8.2 8.9-12.4l18-25.2c3.6-5.1 7.2-10.1 10.9-15.3 1.1-1.6 2.3-3.2 3.5-4.9.6-.9 1.2-1.7 1.8-2.6.9-1.6-.6-3.7-2.3-3.7z"/></g></svg>